<svg width="60" height="25" viewBox="0 0 60 25" fill="none" xmlns="http://www.w3.org/2000/svg">
<path d="M35.8553 8.61438C34.5436 8.61438 33.5668 9.25049 33.5668 10.7815C33.5668 11.935 34.2106 12.7359 35.7845 12.7359C37.1188 12.7359 38.025 11.9593 38.025 10.7336C38.025 9.3447 37.2141 8.61438 35.8553 8.61438ZM33.2328 19.4248C32.9223 19.801 32.6129 20.201 32.6129 20.6725C32.6129 21.6139 33.8283 21.8972 35.4979 21.8972C36.8806 21.8972 38.7644 21.8014 38.7644 20.5315C38.7644 19.7766 37.8582 19.7301 36.7131 19.6593L33.2328 19.4248ZM40.2901 8.68544C40.7186 9.22711 41.1723 9.98104 41.1723 11.0641C41.1723 13.678 39.0979 15.2086 36.0944 15.2086C35.3306 15.2086 34.6392 15.1146 34.2106 14.997L33.4233 16.2447L35.7597 16.3859C39.8849 16.6456 42.316 16.7637 42.316 19.8945C42.316 22.6033 39.9086 24.1331 35.7597 24.1331C31.4444 24.1331 29.7992 23.0498 29.7992 21.1896C29.7992 20.1299 30.2761 19.5658 31.1106 18.7873C30.3237 18.4588 30.0616 17.8704 30.0616 17.2341C30.0616 16.7155 30.3237 16.2449 30.7535 15.797C31.1824 15.3503 31.659 14.9023 32.2314 14.3843C31.0633 13.819 30.1807 12.5945 30.1807 10.8514C30.1807 8.14378 31.993 6.28405 35.6402 6.28405C36.6657 6.28405 37.2858 6.37711 37.8343 6.51947H42.484V8.5204L40.2901 8.68544ZM46.6786 4.40604C45.3193 4.40604 44.5326 3.62827 44.5326 2.28544C44.5326 0.944471 45.3191 0.213684 46.6786 0.213684C48.0614 0.213684 48.8483 0.944471 48.8483 2.28544C48.8483 3.62827 48.0616 4.40604 46.6786 4.40604ZM43.6024 18.5581V16.6986L44.8187 16.5343C45.1527 16.4868 45.2 16.4165 45.2 16.0625V9.13892C45.2 8.88058 45.1288 8.71484 44.8895 8.64493L43.6024 8.19702L43.8644 6.29007H48.8003V16.0625C48.8003 16.4398 48.8233 16.4868 49.1821 16.5345L50.3979 16.6989V18.5581H43.6024ZM59.8266 17.6452C58.801 18.1394 57.299 18.5868 55.9394 18.5868C53.1023 18.5868 52.0298 17.4577 52.0298 14.7952V8.62595C52.0298 8.48475 52.0298 8.39054 51.8383 8.39054H50.1697V6.29401C52.2684 6.0579 53.1023 5.02179 53.3645 2.45489H55.6298V5.79979C55.6298 5.96415 55.6298 6.03521 55.8209 6.03521H59.1823V8.39007H55.6298V14.0181C55.6298 15.4074 55.964 15.9486 57.2509 15.9486C57.9193 15.9486 58.61 15.7843 59.1821 15.5722L59.8266 17.6449" fill="#2F2707"/>
<path d="M24.4992 11.4653L13.5976 0.69837C13.4483 0.550862 13.2711 0.43385 13.076 0.354017C12.8809 0.274183 12.6718 0.233093 12.4606 0.233093C12.2495 0.233093 12.0404 0.274183 11.8453 0.354017C11.6502 0.43385 11.4729 0.550862 11.3236 0.69837L9.05992 2.93448L11.9316 5.77059C12.2691 5.65721 12.6321 5.63946 12.9793 5.71936C13.3265 5.79926 13.6442 5.97362 13.8962 6.22267C14.1496 6.4733 14.3266 6.78928 14.4068 7.13451C14.487 7.47974 14.4673 7.84029 14.3499 8.17499L17.1171 10.9086C17.7866 10.6808 18.5593 10.8282 19.0939 11.3572C19.2716 11.5326 19.4126 11.7409 19.5088 11.9702C19.605 12.1995 19.6545 12.4452 19.6545 12.6934C19.6545 12.9416 19.605 13.1873 19.5088 13.4166C19.4126 13.6459 19.2716 13.8542 19.0939 14.0296C18.7812 14.3388 18.3697 14.5313 17.9295 14.5745C17.4892 14.6177 17.0474 14.5089 16.6792 14.2665C16.3111 14.0242 16.0393 13.6633 15.9103 13.2453C15.7812 12.8273 15.8027 12.3781 15.9713 11.9741L13.3905 9.42499L13.3902 16.1333C13.5773 16.2247 13.7482 16.3454 13.8962 16.4907C14.0739 16.6662 14.2149 16.8746 14.3111 17.1039C14.4073 17.3332 14.4568 17.579 14.4568 17.8272C14.4568 18.0754 14.4073 18.3212 14.3111 18.5505C14.2149 18.7798 14.0739 18.9882 13.8962 19.1636C13.1486 19.9021 11.937 19.9021 11.1905 19.1636C10.9675 18.9435 10.803 18.6724 10.7117 18.3744C10.6203 18.0764 10.605 17.7607 10.6669 17.4554C10.7289 17.1501 10.8663 16.8646 11.0669 16.6244C11.2675 16.3842 11.5251 16.1966 11.8167 16.0785V9.30763C11.5821 9.21299 11.3691 9.07271 11.1905 8.89513C10.6243 8.33656 10.4881 7.51596 10.7783 6.82916L7.94764 4.03286L0.472895 11.4153C0.32353 11.5628 0.205046 11.7379 0.12421 11.9307C0.0433738 12.1234 0.00176782 12.33 0.00176782 12.5386C0.00176782 12.7473 0.0433738 12.9539 0.12421 13.1466C0.205046 13.3394 0.32353 13.5145 0.472895 13.662L11.3745 24.4292C11.6761 24.7269 12.0851 24.8942 12.5115 24.8942C12.9379 24.8942 13.3469 24.7269 13.6485 24.4292L24.4992 13.7123C24.8008 13.4142 24.9702 13.0101 24.9702 12.5888C24.9702 12.1674 24.8008 11.7633 24.4992 11.4653Z" fill="#DE4C36"/>
</svg>
