<svg width="26" height="25" viewBox="0 0 26 25" fill="none" xmlns="http://www.w3.org/2000/svg">
<path d="M18.0149 17.3907C18.9743 17.2905 19.7022 16.456 19.6691 15.4546C19.6361 14.4533 18.8089 13.6522 17.8164 13.6522H17.7503C16.7246 13.6856 15.9306 14.5534 15.9637 15.5881C15.9968 16.0888 16.1953 16.5227 16.493 16.8232C15.3682 19.0596 13.6478 20.6952 11.0673 22.0637C9.31384 22.9984 7.49426 23.3322 5.67469 23.0986C4.18588 22.8983 3.02794 22.2307 2.29999 21.1291C1.24137 19.4935 1.14215 17.7244 2.03544 15.9553C2.66407 14.6869 3.65647 13.7523 4.2851 13.2849C4.15277 12.851 3.95423 12.1167 3.85501 11.5827C-0.942178 15.0875 -0.445875 19.8274 1.00982 22.0637C2.10155 23.7328 4.31821 24.7675 6.76641 24.7675C7.42805 24.7675 8.08968 24.7007 8.75142 24.5339C12.9862 23.6994 16.1954 21.1625 18.0149 17.3907ZM23.8377 13.2516C21.3233 10.2808 17.6179 8.64529 13.3832 8.64529H12.8539C12.5561 8.04447 11.9275 7.64385 11.2327 7.64385H11.1665C10.141 7.67725 9.34704 8.54508 9.38005 9.57992C9.41316 10.5812 10.2402 11.3824 11.2327 11.3824H11.2988C12.0267 11.349 12.6553 10.8817 12.92 10.2474H13.5155C16.0299 10.2474 18.4119 10.9818 20.5625 12.4171C22.2166 13.5186 23.4076 14.954 24.0693 16.6897C24.6317 18.0916 24.5986 19.4601 24.0031 20.6285C23.0768 22.3975 21.5219 23.3656 19.4706 23.3656C18.1473 23.3656 16.8901 22.965 16.2284 22.6645C15.8645 22.9984 15.2027 23.5324 14.7396 23.8663C16.1622 24.5338 17.6179 24.901 19.0074 24.901C22.1835 24.901 24.5325 23.1319 25.4258 21.3628C26.3852 19.4267 26.3189 16.0888 23.8377 13.2516ZM7.03106 17.958C7.06417 18.9594 7.89124 19.7605 8.88375 19.7605H8.94996C9.97557 19.7272 10.7695 18.8592 10.7364 17.8245C10.7034 16.8231 9.87625 16.022 8.88375 16.022H8.81763C8.75142 16.022 8.6521 16.022 8.58609 16.0553C7.22961 13.7856 6.66719 11.3156 6.86573 8.64518C6.99796 6.64242 7.6597 4.90666 8.81763 3.47131C9.77703 2.23627 11.6297 1.63545 12.887 1.60215C16.3938 1.53535 17.8825 5.94139 17.9818 7.71055C18.4119 7.81066 19.1398 8.04436 19.6361 8.21127C19.239 2.80389 15.9306 0 12.7546 0C9.77703 0 7.03107 2.16967 5.93924 5.37408C4.41743 9.64662 5.40993 13.7523 7.26261 16.9901C7.09728 17.2237 6.99796 17.5909 7.03106 17.9581V17.958Z" fill="#764ABC"/>
</svg>
