<svg width="25" height="24" viewBox="0 0 25 24" fill="none" xmlns="http://www.w3.org/2000/svg">
<path d="M12.5001 0C5.59736 0 0 5.50147 0 12.2881C0 17.7173 3.58164 22.3235 8.54834 23.9483C9.17305 24.062 9.40244 23.6817 9.40244 23.3571C9.40244 23.0641 9.39072 22.0961 9.38545 21.0694C5.90791 21.8126 5.17412 19.6195 5.17412 19.6195C4.60547 18.1992 3.78613 17.8214 3.78613 17.8214C2.65205 17.0588 3.87168 17.0746 3.87168 17.0746C5.12686 17.1612 5.78779 18.3408 5.78779 18.3408C6.90273 20.2193 8.71211 19.6763 9.42539 19.3622C9.5376 18.5681 9.86152 18.0259 10.219 17.7191C7.44258 17.4084 4.52393 16.3548 4.52393 11.6463C4.52393 10.3047 5.01221 9.20851 5.81182 8.34797C5.68203 8.03846 5.2542 6.78874 5.93291 5.09606C5.93291 5.09606 6.98262 4.76582 9.37139 6.35568C10.3685 6.08342 11.4378 5.94691 12.5001 5.94221C13.5624 5.94691 14.6326 6.08333 15.6315 6.35568C18.0174 4.76592 19.0656 5.09616 19.0656 5.09616C19.746 6.78864 19.318 8.03856 19.1882 8.34797C19.9896 9.20851 20.4746 10.3047 20.4746 11.6463C20.4746 16.366 17.5504 17.4052 14.7669 17.7094C15.2152 18.0907 15.6147 18.8386 15.6147 19.985C15.6147 21.6291 15.6003 22.9524 15.6003 23.3571C15.6003 23.6842 15.8253 24.0673 16.4589 23.9465C21.4229 22.32 25 17.7156 25 12.2882C25 5.50147 19.4034 0 12.5001 0ZM4.68174 17.5046C4.6542 17.5657 4.55645 17.584 4.46748 17.5421C4.37676 17.502 4.32588 17.4188 4.35518 17.3576C4.38213 17.2947 4.48008 17.2771 4.57051 17.3193C4.66133 17.3594 4.71309 17.4434 4.68174 17.5046ZM5.29658 18.044C5.23701 18.0983 5.12041 18.0731 5.04131 17.9872C4.95957 17.9016 4.94424 17.787 5.00469 17.7319C5.06621 17.6775 5.1792 17.703 5.26113 17.7886C5.34297 17.8753 5.35879 17.9891 5.29658 18.044ZM5.71846 18.734C5.6418 18.7863 5.5166 18.7373 5.43916 18.628C5.3626 18.5188 5.3626 18.3877 5.44082 18.3352C5.51846 18.2827 5.6418 18.33 5.72021 18.4384C5.79658 18.5495 5.79658 18.6805 5.71836 18.7341L5.71846 18.734ZM6.43174 19.5332C6.36328 19.6075 6.21729 19.5876 6.11045 19.4862C6.00117 19.3871 5.9708 19.2466 6.03955 19.1723C6.10889 19.0978 6.25566 19.1187 6.36328 19.2193C6.47168 19.3182 6.50488 19.4598 6.43174 19.5332ZM7.35381 19.803C7.32354 19.8993 7.18291 19.943 7.04141 19.9021C6.9 19.86 6.80752 19.7473 6.83604 19.65C6.86543 19.5531 7.00664 19.5076 7.14922 19.5514C7.29043 19.5932 7.3832 19.7052 7.35381 19.8031V19.803ZM8.40303 19.9175C8.40654 20.0188 8.28652 20.1028 8.13789 20.1047C7.98848 20.108 7.86748 20.026 7.86582 19.9261C7.86582 19.8239 7.9832 19.7407 8.13272 19.7382C8.28135 19.7353 8.40303 19.8167 8.40303 19.9175ZM9.43379 19.8786C9.45156 19.9775 9.34834 20.0791 9.20068 20.1061C9.05566 20.1322 8.92129 20.0711 8.90283 19.9731C8.88486 19.8717 8.99004 19.7701 9.13486 19.7439C9.28271 19.7187 9.41494 19.7781 9.43379 19.8786Z" fill="#161614"/>
</svg>
