<svg width="19" height="25" viewBox="0 0 19 25" fill="none" xmlns="http://www.w3.org/2000/svg">
<path d="M9.48842 24.9368L1.75735 22.9339L0.0344791 4.90063H18.9655L17.2409 22.9311L9.48842 24.9368Z" fill="#264DE4"/>
<path d="M15.7644 21.783L17.2381 6.37512H9.5V23.4037L15.7644 21.783Z" fill="#2965F1"/>
<path d="M3.98409 13.0634L4.19647 15.2751H9.5V13.0634H3.98409ZM3.55725 8.58691L3.77267 10.7986H9.5V8.58691H3.55725ZM9.5 18.8075L9.48961 18.81L6.8502 18.1449L6.68146 16.381H4.30237L4.63437 19.8537L9.48909 21.1114L9.5 21.1086V18.8075Z" fill="#EBEBEB"/>
<path d="M4.48981 0H7.36016V1.12022H5.69019V2.24044H7.3603V3.36059H4.48981V0ZM7.9343 0H10.8047V0.9741H9.13468V1.16891H10.8047V3.40935H7.93437V2.38643H9.60441V2.19162H7.93422V0H7.9343ZM11.3789 0H14.2493V0.9741H12.5792V1.16891H14.2493V3.40935H11.3789V2.38643H13.0489V2.19162H11.3789V0H11.3789Z" fill="black"/>
<path d="M15.0008 13.0634L15.4286 8.58691H9.49184V10.7986H12.8313L12.6157 13.0634H9.49184V15.2751H12.4102L12.135 18.1436L9.49176 18.8094V21.1103L14.3503 19.8537L14.386 19.4801L14.943 13.6573L15.0008 13.0634Z" fill="white"/>
</svg>
