<svg width="18" height="25" viewBox="0 0 18 25" fill="none" xmlns="http://www.w3.org/2000/svg">
<path d="M17.9673 4.9007L16.3335 22.9312L8.98903 24.9368L1.66486 22.9339L0.0326653 4.9007H17.9673Z" fill="#E44D26"/>
<path d="M9 23.4037L14.9347 21.783L16.3309 6.37512H9V23.4037Z" fill="#F16529"/>
<path d="M5.82377 10.7986H9V8.58691H3.37003L3.42374 9.18027L3.9756 15.2751H9V13.0634H6.02898L5.82377 10.7986ZM6.3298 16.381H4.07593L4.39046 19.8537L8.98966 21.1114L9 21.1086V18.8075L8.99016 18.81L6.48966 18.1449L6.3298 16.381Z" fill="#EBEBEB"/>
<path d="M1.70127 0H2.84227V1.11046H3.88604V0H5.02711V3.36274H3.88611V2.2367H2.84234V3.36274H1.70135V0H1.70127ZM6.52749 1.11517H5.52316V0H8.67366V1.11517H7.6687V3.36274H6.5277V1.11517H6.52763H6.52749ZM9.17364 0H10.3634L11.0952 1.18158L11.8263 0H13.0165V3.36274H11.8802V1.69598L11.0952 2.89162H11.0755L10.29 1.69598V3.36274H9.17364V0ZM13.5844 0H14.7257V2.25125H16.3303V3.36274H13.5843V0H13.5844Z" fill="black"/>
<path d="M8.99227 15.2751H11.757L11.4963 18.1436L8.9922 18.8094V21.1103L13.5951 19.8537L13.6288 19.4801L14.1565 13.6573L14.2113 13.0634H8.99227V15.2751ZM8.99227 10.7932V10.7986H14.4156L14.4605 10.3015L14.5629 9.18027L14.6165 8.58691H8.99227V10.7933V10.7932Z" fill="white"/>
</svg>
