<svg width="25" height="25" viewBox="0 0 25 25" fill="none" xmlns="http://www.w3.org/2000/svg">
<path d="M0 0H25V25H0V0Z" fill="#F7DF1E"/>
<path d="M6.57344 20.8918L8.48653 19.734C8.85567 20.3884 9.19141 20.9421 9.99678 20.9421C10.7688 20.9421 11.2556 20.6401 11.2556 19.4655V11.4775H13.6049V19.4987C13.6049 21.932 12.1785 23.0397 10.0975 23.0397C8.21807 23.0397 7.12715 22.0663 6.57334 20.8916L6.57344 20.8918ZM14.881 20.6401L16.7938 19.5325C17.2975 20.3549 17.952 20.959 19.1098 20.959C20.0833 20.959 20.704 20.4723 20.704 19.801C20.704 18.9955 20.0663 18.7102 18.9923 18.2404L18.4051 17.9885C16.7101 17.2671 15.5857 16.3609 15.5857 14.4478C15.5857 12.6857 16.9282 11.3431 19.026 11.3431C20.5195 11.3431 21.5936 11.8634 22.3654 13.2227L20.5361 14.3975C20.1333 13.6759 19.6972 13.3906 19.0259 13.3906C18.3378 13.3906 17.9015 13.827 17.9015 14.3975C17.9015 15.1023 18.3378 15.3877 19.3446 15.824L19.9319 16.0757C21.929 16.9317 23.0533 17.8042 23.0533 19.7675C23.0533 21.8821 21.392 23.04 19.1601 23.04C16.9785 23.04 15.5688 21.9995 14.8809 20.6401" fill="black"/>
</svg>
