<svg width="28" height="25" viewBox="0 0 28 25" fill="none" xmlns="http://www.w3.org/2000/svg">
<path d="M23.02 8.09472C22.7221 7.99223 22.4216 7.89728 22.1189 7.80996C22.1698 7.60163 22.2166 7.39581 22.2581 7.19362C22.9403 3.87334 22.4944 1.19845 20.9711 0.317744C19.5107 -0.526554 17.1222 0.353819 14.7101 2.45875C14.4723 2.66657 14.2399 2.88039 14.0129 3.09998C13.861 2.95396 13.7064 2.81077 13.5491 2.67049C11.021 0.419828 8.48703 -0.528747 6.96545 0.354477C5.50631 1.20141 5.07424 3.71599 5.68839 6.8627C5.74949 7.17435 5.81848 7.48439 5.89529 7.79253C5.5366 7.89472 5.19049 8.00349 4.85925 8.11928C1.89526 9.15546 0.00241089 10.7793 0.00241089 12.4636C0.00241089 14.2032 2.03447 15.948 5.12159 17.006C5.37187 17.0914 5.62424 17.1706 5.87845 17.2434C5.79589 17.5753 5.72259 17.9094 5.65864 18.2454C5.07315 21.3375 5.53037 23.7926 6.98557 24.6342C8.48856 25.5033 11.0112 24.6101 13.4674 22.4571C13.6666 22.2821 13.8614 22.1021 14.0516 21.9173C14.2974 22.1551 14.5498 22.386 14.8084 22.6096C17.1877 24.6625 19.5376 25.4914 20.9914 24.6476C22.4929 23.776 22.981 21.1385 22.3474 17.9296C22.2975 17.6782 22.2415 17.428 22.1795 17.1794C22.3567 17.1267 22.5306 17.0726 22.7001 17.0162C25.9094 15.9501 27.9976 14.2264 27.9976 12.4636C27.9976 10.7731 26.0436 9.13836 23.02 8.09472ZM22.324 15.8781C22.1709 15.9288 22.0138 15.9778 21.8537 16.0255C21.4994 14.9009 21.0213 13.705 20.4362 12.4694C20.9945 11.2632 21.4543 10.0827 21.7986 8.96533C22.085 9.04845 22.3629 9.13606 22.6308 9.22849C25.2215 10.1228 26.8017 11.4448 26.8017 12.4636C26.8017 13.5487 25.0951 14.9573 22.324 15.8781ZM21.1742 18.1625C21.4544 19.5813 21.4943 20.8642 21.3087 21.8672C21.1421 22.7684 20.8068 23.3692 20.3921 23.6099C19.5099 24.1219 17.6232 23.4563 15.5884 21.7006C15.3479 21.4927 15.1131 21.278 14.8845 21.057C15.6734 20.192 16.4617 19.1864 17.2312 18.0695C18.5845 17.9491 19.8631 17.7522 21.0226 17.4834C21.0785 17.7085 21.129 17.935 21.1742 18.1625ZM9.54658 23.5214C8.68464 23.8265 7.9981 23.8353 7.58309 23.5954C6.70004 23.0847 6.33293 21.1134 6.83367 18.4691C6.8932 18.1566 6.96135 17.8458 7.03806 17.5372C8.18477 17.7915 9.45407 17.9744 10.8106 18.0847C11.5853 19.1776 12.3964 20.1821 13.2138 21.0617C13.0401 21.2303 12.8623 21.3945 12.6805 21.5543C11.5943 22.5062 10.5059 23.1817 9.54658 23.5214ZM5.5085 15.8714C4.1434 15.4035 3.01605 14.7955 2.24334 14.132C1.54893 13.5358 1.19844 12.9438 1.19844 12.4636C1.19844 11.4414 2.71816 10.1377 5.25293 9.25163C5.56055 9.14417 5.88249 9.04274 6.21658 8.94757C6.56695 10.0901 7.02647 11.2847 7.58101 12.4927C7.01925 13.7186 6.55318 14.9323 6.19941 16.0884C5.96737 16.0217 5.73699 15.9494 5.5085 15.8714ZM6.86211 6.63233C6.33599 3.93638 6.68539 1.90272 7.56472 1.39231C8.50125 0.848665 10.5722 1.62377 12.7551 3.5672C12.8974 3.69421 13.0375 3.8238 13.1751 3.9559C12.3617 4.83167 11.5581 5.82871 10.7903 6.91511C9.47364 7.03748 8.21331 7.23397 7.05457 7.49724C6.98318 7.21064 6.91901 6.92228 6.86211 6.63244V6.63233ZM18.938 9.62224C18.6643 9.14822 18.3804 8.68016 18.0866 8.2184C18.9799 8.33167 19.8357 8.482 20.6393 8.66577C20.3981 9.44121 20.0974 10.2518 19.7434 11.083C19.4846 10.5907 19.2161 10.1037 18.938 9.62224ZM14.0135 4.81292C14.565 5.41215 15.1175 6.08112 15.6609 6.807C14.5586 6.7548 13.4544 6.75458 12.3521 6.80634C12.8961 6.08715 13.4532 5.41906 14.0135 4.81292ZM9.05732 9.63046C8.78266 10.1081 8.51915 10.5921 8.26701 11.082C7.91882 10.2538 7.62082 9.43946 7.3775 8.65305C8.17624 8.47388 9.02802 8.32739 9.91555 8.21621C9.61848 8.68079 9.33232 9.1523 9.05732 9.63035V9.63046ZM9.94103 16.7963C9.02408 16.6936 8.15951 16.5547 7.36099 16.3804C7.60813 15.5799 7.91269 14.7482 8.26843 13.9023C8.52157 14.3926 8.78617 14.8769 9.06203 15.3547C9.3457 15.8459 9.63943 16.3271 9.94103 16.7963ZM14.0465 20.1987C13.4796 19.5855 12.9142 18.9071 12.3621 18.1775C12.8981 18.1986 13.4446 18.2093 14 18.2093C14.5706 18.2093 15.1347 18.1965 15.6899 18.1717C15.1447 18.9145 14.5944 19.5938 14.0465 20.1987ZM19.7547 13.8591C20.1289 14.7143 20.4443 15.5416 20.6947 16.3284C19.883 16.5141 19.0067 16.6637 18.0833 16.7748C18.3792 16.3044 18.6657 15.8282 18.9427 15.3465C19.2243 14.8568 19.495 14.3609 19.7547 13.8591ZM17.9068 14.7474C17.4827 15.486 17.0348 16.2106 16.5638 16.92C15.7105 16.9806 14.8554 17.0107 14 17.0103C13.1288 17.0103 12.2814 16.9831 11.4653 16.93C10.982 16.2222 10.5256 15.4963 10.097 14.7539H10.0971C9.6705 14.0155 9.27205 13.261 8.90258 12.4922C9.27111 11.7232 9.66835 10.9684 10.0935 10.2294L10.0934 10.2295C10.5183 9.49025 10.9711 8.76747 11.4508 8.0627C12.2833 7.99954 13.1371 7.96665 13.9999 7.96665H14C14.8668 7.96665 15.7216 7.99987 16.5539 8.06347C17.0287 8.76718 17.4787 9.48748 17.9028 10.223C18.3294 10.9604 18.7319 11.7115 19.1097 12.4752C18.7357 13.2467 18.3345 14.0045 17.9068 14.7474ZM20.3738 1.35656C21.3112 1.89867 21.6758 4.08474 21.0868 6.95152C21.0492 7.13441 21.007 7.3207 20.9611 7.50963C19.7995 7.24077 18.5383 7.04088 17.2178 6.91665C16.4486 5.81829 15.6515 4.81972 14.8513 3.95524C15.061 3.75256 15.2757 3.55513 15.4952 3.36314C17.5621 1.55974 19.4937 0.847678 20.3738 1.35656ZM14 9.957C15.3806 9.957 16.4999 11.0793 16.4999 12.4636C16.4999 13.8479 15.3806 14.9702 14 14.9702C12.6194 14.9702 11.5001 13.8479 11.5001 12.4636C11.5001 11.0793 12.6194 9.957 14 9.957Z" fill="#00D8FF"/>
</svg>
